<svg xmlns="http://www.w3.org/2000/svg" viewBox="0 0 557.63 548.71"><defs><style>.cls-1{fill:none;stroke:#000;stroke-linecap:round;stroke-linejoin:round;stroke-width:4px;}</style></defs><g id="Layer_2" data-name="Layer 2"><g id="Layer_1-2" data-name="Layer 1"><path d="M508.26,173.34c4.18-20.89,8.11-40,10.31-59.4,3.68-32.65,4.35-65.38,4.14-98.18-.05-7.75,3.68-12.29,10.12-13.1,12.37-1.57,15.48,0,17.66,9.47,3.36,14.7,4.51,29.69,6.18,44.65,2.18,19.47.05,38.71-.71,58a660.18,660.18,0,0,1-6.44,68.8c-3.7,25.58-6.86,51.25-10.25,76.88-.07.47,0,.95-.09,1.42-2,14.89-3,15.21-18,13.39-8.4-1-17-.72-25.5-.4-6.54.24-10.12-2.9-12.31-8.48-14.33-36.48-31.41-71.69-49.23-106.55-3.75-7.34-7.7-14.57-12.1-22.89,3,34,7.4,66.6,8.33,99.56.27,9.87,1.19,19.78.94,29.67-.25,10.18-1.68,11.23-11.74,11.43-10.31.2-20.46,2.31-31,.59-5.85-1-6.85-3.73-6.16-7.87,2.22-13.42.66-26.9,1.17-40.34,2.79-73,.93-146.07,1.29-219.1,0-6.63,2.21-8.62,8.57-8.34,19,.84,32.27,11.21,42.17,26.08,18,27,31.75,56.29,45.91,85.37C490.76,133,500.11,152.05,508.26,173.34Z"/><path d="M262.31,437.28a108,108,0,0,1,.11,11.24q0,40.78,0,81.58c0,2.6-.05,5.2-.27,7.79-.57,6.77-3.8,10-11.1,9.34-8.88-.83-17.94,1-26.72-1.94-9-3.06-11.35-7-10.52-16.33.43-4.86-.49-9.83-.49-14.76-.05-47.76.09-95.53-.1-143.3-.07-18.16-1-36.32-1.3-54.49-.18-11.8,4.05-17.5,15.25-20.71a96.33,96.33,0,0,1,16-3.13c8.75-1,13.66,3,17.63,13.13,9.65,24.6,19.26,49.23,29.09,73.76,7,17.53,14.36,34.93,21.84,53.06,2.35-3.86,2.53-7.6,2.53-11.4,0-22.22.82-44.49-.26-66.67-.91-18.8-1-37.75-4.39-56.36-.83-4.56.91-6.51,4.61-8.1,18.43-7.95,30.95-2.63,36.8,16.56,6.28,20.63,8.57,42.08,11.68,63.34,3.63,24.8,4.92,49.86,5.27,74.8.41,29.69-.38,59.53-6.92,88.78-2.78,12.45-6.1,15-19.08,15.07-8,0-16.1-.4-24.11.12-8.38.54-13.83-3.23-18.29-9.77-8-11.73-11.73-25.26-16.28-38.39C276,479.54,269.25,458.37,262.31,437.28Z"/><path d="M367.47,46.35c-18.18-42.51-70.08-59.61-109-35-29.22,18.45-44,47.53-52,79.84-6.21,25.22-5.85,51.39-6,77.31-.07,13.42-.71,26.9.32,40.25.67,8.58.64,17.89,3.82,25.61,3.24,7.87,6.87,16,11.59,23.32,10.64,16.5,24.93,27.5,45.44,25.33,18.59-2,37.28.28,55.79-2.58,15.89-2.45,30.32-6.55,34.71-24.82,2.64-11,5.46-21.93,5.55-35a55.38,55.38,0,0,0-1-8.83c-.65-2.69.24-6.53-4.09-7.38-4.06-.8-6.83,1.16-9.16,4.06-1.32,1.65-2.17,3.74-3.68,5.18-5,4.8-8.87,12.11-16,13-15.41,1.84-31,2.17-46.49,3.17-3.83.25-6-.7-6.64-5.17-1.12-7.9-3.15-15.67-4.63-23.52-3.92-20.8-8.18-41.55-9.29-62.77-.25-4.79,1.45-7,6.18-8.53,33.33-11.09,67.16-20.52,100.82-30.51,4.7-1.39,6.95-3.84,8.43-8.31C377.34,75.28,373.61,60.71,367.47,46.35ZM283.65,71c-1.25.43-2.2-.51-3-1.46a13.52,13.52,0,0,1-.81-1.17c-1.88-2.81-2.55-7.77-6.94-6.88-4.81,1-6.55,5.82-7.84,10.13-1,3.36-1.11,7-2.06,10.37-.72,2.53-3.16,3.78-4.57,1.07-3.52-6.77-2.21-13.88.58-20.52,2.19-5.22,6-9.1,10.42-9.19,9,0,15.92,6.88,16,14.14C285.44,68.91,285.21,70.43,283.65,71Zm52.22-10.58c-1.94.58-3.05-.78-3.87-2.33-.44-.84-.82-1.71-1.25-2.55-1.09-2.18-2.33-4.37-5.16-4.12-3.06.26-4.39,2.72-5,5.28-.81,3.18-.95,6.54-1.81,9.71-.67,2.42-3.05,4.14-4.36,1.12a20.65,20.65,0,0,1,0-16.56c1.85-4.29,6.17-5.53,9.42-6.27,6.38-.2,13.41,5.73,14.21,11.09C338.31,57.75,338.15,59.68,335.87,60.37Z"/><path d="M101.81,156.91c-15.4.37-30.75.06-45.23-6.08C31,140,27.46,122.16,29.2,97.66c1.19-16.71,6.36-32.45,13.15-48,11.3-26,31.59-37.71,58-41.22,15.3-2,30.44-.89,45,5.19,24.45,10.22,36.93,29.27,42.06,54.52,2.06,10.13-.65,16.7-9.64,21.56s-17.31,3.06-23-5.77c-3.64-5.69-4.93-12.2-6.77-18.51-4.15-14.22-18.29-25.59-31-24.84-15.9.94-27.92,12.73-30.55,29.39-2.28,14.5,1.86,27.43,8.7,39.84a6.68,6.68,0,0,0,4.82,3.64c14.27,3.11,28.41,7,43.27,5.6,7.9-.72,15.29.91,22.74,4,16.18,6.62,23.55,17,24.14,34.55.86,24.92-1.17,49.44-8.63,73.36-7.08,22.67-18,41.89-43.55,47.36-14.41,3.09-29,2.67-43.63,1-16.48-1.91-32.58-4.77-47.93-11.33-32-13.69-47.31-37.32-46.34-72q.2-6.74.21-13.48c0-13.06,6-20.59,16.53-20.78C31.55,161.31,42.3,170,42.32,183c0,10.16,1.6,19.43,8.19,27.74,2.61,3.29,5.13,6.22,9,7.58,21.35,7.59,43.12,9.67,65.33,4.25a33.89,33.89,0,0,0,12.06-5.78c8-5.87,12.57-12.71,10.2-23.57A90.49,90.49,0,0,0,137.86,168c-4.2-7.55-10.34-11.35-19-11.15C113.16,157,107.48,156.91,101.81,156.91Z"/><path d="M508.11,519.1c-6.54,6.71-12.44,13.45-20.5,17.71-26.77,14.16-56.41,5-74.47-23.06-12.21-19-18.19-40.33-22.32-62.19a245.76,245.76,0,0,1-4.34-59.79c1.46-25.4,7.24-49.25,25.08-69,13.66-15.09,30.48-23.09,50.25-26.31,11.3-1.84,22-6.9,33.88-5.79,14.57,1.37,27.72,5.48,37.31,17.37,7,8.7,9.64,18.82,9,29.77a17.41,17.41,0,0,1-13.15,15.75c-7.26,2-12.46-1.72-16.63-6.82-10.55-12.91-18.15-14.25-32.28-5.17-18.73,12-30.76,28.76-36,50.49-2.84,11.66-6.11,23.24-7.7,35.13-3.92,29.27,16.23,58.51,46.29,58,8-.15,14.35-5.16,16.89-12.84s-.09-18.7-5.51-22.91-10.57-3.59-15.76,1.63c-4.41,4.43-6.43,10.43-10.09,15.35-4.4,5.93-8.69,6.32-14.11,1.16a16.12,16.12,0,0,1-4.67-16.25c4.37-18.18,14.54-32.79,29.58-43.56,13.9-10,32-7.86,45.1,3.31,15.27,13.06,21.94,30.34,25.21,49.3,4,23.15,4,46.43,1.55,69.76-.66,6.14-3.66,9.4-9.79,10-7,.67-13.86,2.22-20.58-1.77C513,534.06,509.37,527.69,508.11,519.1Z"/><path d="M178.33,386.67c-3.42-22.23-8.69-44-18.4-64.48-16.23-34.18-50.41-35.47-73.79-17a90.42,90.42,0,0,0-20.78,23.92c-18,29-25,61.44-29.32,94.65-3,22.9-5.54,45.86-8.09,68.81-1.49,13.38-2.57,26.82-1.71,40.29.5,7.88,7.29,15.49,12.67,13.35,7.23-2.89,14.48-1.4,21.66-2.29,11.12-1.39,11.37-1.11,11.23-12.8-.3-25.3.66-50.52,4.33-75.58,2.05-14,6-27.37,16.61-37.55,5.65-5.43,12.59-9.4,20.56-6.41,7.64,2.86,7.91,10.77,8.55,17.45,3.18,33.39,4.84,66.87,5.34,100.4.17,11.65,4.78,15.84,16.34,14.71,8.21-.8,16.39-2.2,24.61-2.49,5.94-.21,8.24-2.67,9.2-8.28,4.65-27.1,4.07-54.52,5.41-76.1C182.85,429.83,181.62,408.15,178.33,386.67ZM92.61,369.9c-3.71.63-2-4.15-2.64-6.54-1.15-4-2.55-8.31-7.38-8.18s-5.44,4.32-5.84,8.31A68.27,68.27,0,0,1,75.17,371c-2.37-4.24-2.36-8.7-1.42-13,.89-4.06,3.21-7.33,7.92-8s7.63,1.89,9.68,5.63a21.11,21.11,0,0,1,2.08,6C94,364.59,95.26,369.44,92.61,369.9Zm50.68,3.83c-2.9-2.56-3-5.3-2.95-8a21.77,21.77,0,0,0-1.66-8.95c-.77-1.9-2-3.23-4.15-3.22s-3.31,1.42-4.23,3.21C128,361.28,129,366.38,128,373c-4.4-8.18-3.12-18.75,1.6-23.39,3.88-3.8,9.17-2.44,11.77,3.45A32.82,32.82,0,0,1,143.29,373.73Z"/><path d="M356,129.35a17.75,17.75,0,0,1-1.6,3.1c-3.93,5-7.8,10.08-12,14.91-3.65,4.24-7.63,3.36-11.95.51-11.76-7.78-11.81-7.67-20.23,3.45-2.56,3.37-4.89,7.64-10.08,6.17-6-1.7-11.26-4.93-14.72-10.36a3.86,3.86,0,0,1,.86-5.16c1.93-1.7,3.89-1.09,5.83.16,3,2,4.79,7,9,5.69,3.61-1.07,4.89-5.53,7.32-8.38,7.1-8.31,11.75-9.23,20.34-2.88,5.17,3.83,8.91,4.35,12.53-1.84a20.36,20.36,0,0,1,7.94-8C352.2,125.28,354.79,125.41,356,129.35Z"/><path d="M116.23,189.44c-.13,9.11-7.06,17.15-14.58,16.93-8-.23-15-9-14.78-18.5.18-7.89,6.75-13.71,15-13.32C110.94,175,116.35,180.6,116.23,189.44Z"/><path d="M310,205.42c-5.12-.29-15.17-13.09-14-18,.8-3.3,3-4.18,5.86-2.4,1.11.7,1.78,2.14,2.57,3.3,4.64,6.8,5.21,6.76,9.07-.19a33.69,33.69,0,0,1,4.33-6.43c5.66-6.18,10.74-6.92,17.36-1.93,3.76,2.82,6.29,2.93,9.66-.49,2.87-2.91,7.26-7.14,10.77-3.16,3.15,3.56-2.39,6.31-4.8,8.78-8.82,9-9,9.14-19.64,2.46-4.19-2.64-6.64-1.34-8.7,2.16-2.14,3.67-3.91,7.55-5.93,11.29C315.11,203.42,313.3,205.55,310,205.42Z"/><path d="M121.69,67.92c7.61.3,13,4.74,12.66,10.45C134,83.89,129,89.9,124.73,90c-5.07.08-12.11-8-12.07-13.93Q112.71,67.57,121.69,67.92Z"/><path class="cls-1" d="M118.8,482.86s-1.21,28.44-17.25,17.74S89.39,469,91.82,460.74s17-5.35,18,6.32.25,29.17-5.46,21.87-2.8-18.95-2.8-18.95"/></g></g></svg>